<svg viewBox="-65 0 512 512" xmlns="http://www.w3.org/2000/svg"><path d="m76.488281 53.167969h85.292969v36.171875h-85.292969zm0 0" fill="#1d9942"/><path d="m76.488281 53.167969h20v36.171875h-20zm0 0" fill="#158732"/><path d="m173.734375 7.492188h-109.199219c-2.769531 0-5.015625 2.246093-5.015625 5.015624v38.664063c0 2.769531 2.246094 5.015625 5.015625 5.015625h109.199219c2.769531 0 5.015625-2.246094 5.015625-5.015625v-38.664063c0-2.769531-2.246094-5.015624-5.015625-5.015624zm0 0" fill="#49ae3a"/><path d="m173.734375 36.183594h-109.199219c-2.769531 0-5.015625-2.246094-5.015625-5.015625v20c0 2.773437 2.246094 5.019531 5.015625 5.019531h109.199219c2.769531 0 5.015625-2.246094 5.015625-5.019531v-20c0 2.769531-2.246094 5.015625-5.015625 5.015625zm0 0" fill="#1d9942"/><path d="m253.875 121.671875h83.996094c.738281 0 1.414062.671875 1.414062 1.414063v82.007812l21.792969 20.441406c3.519531 3.300782 6.371094 7.171875 8.476563 11.402344v-113.855469c0-17.46875-14.214844-31.683593-31.683594-31.683593h-118.242188c6.003906 3.234374 6.074219 3.84375 34.246094 30.273437zm0 0" fill="#1d9942"/><path d="m255.839844 91.398438h-36.210938c6.003906 3.234374 6.074219 3.84375 34.246094 30.273437h34.238281zm0 0" fill="#158732"/><path d="m369.554688 236.933594v-38.871094l-30.269532-28.394531v35.421875l21.792969 20.445312c3.519531 3.300782 6.375 7.171875 8.476563 11.398438zm0 0" fill="#158732"/><path d="m361.078125 217.535156-128.027344-120.085937c-7.4375-6.980469-17.257812-10.863281-27.457031-10.863281h-158.839844c-22.167968 0-40.136718 17.96875-40.136718 40.136718v337.628906c0 22.167969 17.96875 40.136719 40.136718 40.136719h286.867188c22.167968 0 40.136718-17.96875 40.136718-40.136719v-217.539062c0-11.09375-4.589843-21.6875-12.679687-29.277344zm0 0" fill="#e0e0de"/><path d="m26.617188 464.351562v-337.628906c0-22.167968 17.96875-40.136718 40.136718-40.136718h-20c-22.167968 0-40.136718 17.96875-40.136718 40.136718v337.628906c0 22.167969 17.96875 40.136719 40.136718 40.136719h20c-22.167968 0-40.136718-17.96875-40.136718-40.136719zm0 0" fill="#c6c6c4"/><path d="m6.617188 458.777344h367.140624v-211.964844c0-11.09375-4.589843-21.6875-12.679687-29.277344l-90.875-85.238281h-263.585937zm0 0" fill="#ededed"/><path d="m6.617188 132.296875h20v326.480469h-20zm0 0" fill="#e0e0de"/><g fill="#a0d92a"><path d="m179.390625 186.035156c-3.242187-1.957031-7.332031-1.957031-10.570313 0-49.640624 29.976563-49.6875 101.988282 0 131.992188 3.238282 1.957031 7.328126 1.957031 10.570313 0 49.640625-29.976563 49.6875-101.988282 0-131.992188zm0 0"/><path d="m74.984375 275.941406c-2.96875.734375-5.300781 3.066406-6.035156 6.035156-11.226563 45.445313 29.855469 86.582032 75.347656 75.347657 2.96875-.734375 5.300781-3.070313 6.035156-6.035157 11.226563-45.449218-29.855469-86.582031-75.347656-75.347656zm0 0"/><path d="m273.226562 275.941406c2.964844.734375 5.300782 3.066406 6.035157 6.035156 5.050781 20.449219-.414063 42.96875-16.394531 58.953126-15.984376 15.980468-38.503907 21.445312-58.953126 16.394531-2.96875-.734375-5.300781-3.070313-6.035156-6.035157-11.226562-45.449218 29.855469-86.582031 75.347656-75.347656zm0 0"/></g><path d="m184.105469 189.132812c-1.535157-1.085937-3.101563-2.121093-4.714844-3.097656-3.242187-1.957031-7.332031-1.957031-10.570313 0-49.640624 29.976563-49.6875 101.988282 0 131.992188 3.238282 1.957031 7.328126 1.957031 10.570313 0 1.613281-.972656 3.179687-2.011719 4.714844-3.097656-43.421875-30.765626-43.378907-95.0625 0-125.796876zm0 0" fill="#74c432"/><path d="m88.953125 281.976562c1.316406-5.335937 5.828125-6.203124 11.015625-7.042968-8.292969-1.347656-16.800781-1.011719-24.984375 1.007812-2.96875.734375-5.300781 3.066406-6.03125 6.035156-10.707031 43.34375 26.308594 83.488282 70.359375 76.355469-35.519531-5.761719-59.15625-40.75-50.359375-76.355469zm0 0" fill="#74c432"/><path d="m223.914062 357.324219c-2.96875-.734375-5.300781-3.070313-6.035156-6.035157-8.777344-35.550781 14.78125-70.585937 50.363282-76.355468-44.070313-7.136719-81.066407 33.03125-70.363282 76.355468.734375 2.964844 3.066406 5.300782 6.03125 6.035157 8.183594 2.019531 16.695313 2.351562 24.988282 1.007812-1.671876-.269531-3.335938-.601562-4.984376-1.007812zm0 0" fill="#74c432"/><path d="m174.992188 407.328125c4.140624 0 7.5-3.359375 7.5-7.5v-14.878906l19.894531-19.894531c47.300781 14.074218 98.730469-30.671876 85.433593-84.503907-1.410156-5.707031-5.832031-10.128906-11.539062-11.539062-19.273438-4.757813-39.027344-1.257813-55.109375 9.332031 11.628906-36.410156-1.992187-77.574219-37-98.710938-5.664063-3.421874-12.699219-3.421874-18.363281 0-34.105469 20.59375-48.972656 61.21875-37 98.707032-16.085938-10.589844-35.835938-14.089844-55.109375-9.328125-5.707031 1.410156-10.128907 5.832031-11.539063 11.539062-13.234375 53.582031 37.847656 98.660157 85.433594 84.503907l19.894531 19.894531v14.878906c0 4.140625 3.359375 7.5 7.503907 7.5zm-83.789063-71.109375c-3.8125-3.8125-6.980469-8.066406-9.472656-12.625l21.703125-2.699219 10.492187 10.488281-22.519531 5.03125c-.070312-.066406-.136719-.128906-.203125-.195312zm-15.90625-43.464844 14.695313 14.695313-13.65625 1.699219c-1.160157-5.328126-1.523438-10.84375-1.039063-16.394532zm54.070313 5.300782c.042968.042968.085937.085937.128906.128906l-5.03125 22.523437-10.507813-10.507812 2.695313-21.667969c4.59375 2.5 8.878906 5.6875 12.714844 9.523438zm7.660156 35.214843 4.027344-18.039062c3.539062 8.210937 5.011718 17.207031 4.21875 26.285156zm21.429687-13.285156c2.210938 1.664063 6.53125 4.6875 9.03125 5.859375v37.890625l-9.285156-9.289063c2.679687-8.996093 3.289063-22.234374.253906-34.460937zm74.871094-31.445313 2.691406 21.664063-10.503906 10.503906-5.03125-22.523437c.042969-.042969.085937-.085938.128906-.128906 3.835938-3.835938 8.121094-7.015626 12.714844-9.515626zm41.355469 4.214844c.484375 5.550782.121094 11.066406-1.042969 16.394532l-13.652344-1.699219zm-16.109375 43.660156-22.519531-5.03125 10.488281-10.488281 21.703125 2.699219c-2.597656 4.753906-5.789063 8.960938-9.671875 12.820312zm-45.621094-3.144531-8.25 8.25c-.789063-9.082031.679687-18.078125 4.21875-26.285156zm-21.175781 21.175781-9.289063 9.285157v-37.890625c2.496094-1.164063 6.816407-4.1875 9.035157-5.855469-3.003907 12.101563-2.464844 25.339844.253906 34.460937zm-9.285156-46.441406v-19.140625l24.535156-15.574219c-4.292969 13.746094-12.773438 25.859376-24.535156 34.714844zm27.699218-54.492187-27.699218 17.582031v-22.53125l24.0625-18.742188c2.480468 7.378907 3.777343 15.285157 3.636718 23.691407zm-42.703125 17.707031-27.695312-17.585938c-.15625-8.21875 1.066406-16.140624 3.59375-23.691406l24.101562 18.769532zm0 17.765625v19.019531c-11.722656-8.824218-20.183593-20.878906-24.488281-34.5625zm47.824219 63.140625 8.179688-8.179688 17.976562 4.019532c-8.171875 3.496094-17.121094 4.945312-26.15625 4.160156zm48.746094-69.957031-14.59375 14.589843-1.6875-13.582031c5.796875-1.253906 10.992187-1.46875 16.28125-1.007812zm-64.011719-66.289063-17.554687 13.671875v-32.96875c7.117187 5.359375 13.039062 11.910157 17.554687 19.296875zm-32.558594-19.296875v33.117188l-17.617187-13.722657c4.523437-7.425781 10.464844-14.007812 17.617187-19.394531zm-65.285156 86.585938-1.6875 13.589843-14.613281-14.609374c5.519531-.480469 11.003906-.128907 16.300781 1.019531zm6.304687 64.796875 17.980469-4.019532 8.179688 8.179688c-9.035157.789062-17.984375-.664062-26.160157-4.160156zm0 0"/><path d="m47.640625 79.09375c-26.269531 0-47.640625 21.371094-47.640625 47.640625v337.628906c0 26.265625 21.371094 47.636719 47.640625 47.636719h286.863281c26.269532 0 47.640625-21.371094 47.640625-47.636719v-103.382812c0-4.144531-3.359375-7.503907-7.5-7.503907-4.144531 0-7.5 3.359376-7.5 7.503907v90.308593h-174.652343c-4.144532 0-7.5 3.355469-7.5 7.5 0 4.140626 3.355468 7.5 7.5 7.5h174.589843c-1 17.101563-15.226562 30.710938-32.578125 30.710938h-286.863281c-17.351563 0-31.578125-13.609375-32.578125-30.710938h142.425781c4.144531 0 7.5-3.359374 7.5-7.5 0-4.144531-3.355469-7.5-7.5-7.5h-142.488281v-311.480468h253.121094l88.710937 83.207031c6.351563 5.957031 10.308594 14.605469 10.308594 23.804687v79.15625c0 4.144532 3.359375 7.5 7.503906 7.5 4.140625 0 7.5-3.355468 7.5-7.5v-79.15625c0-6.558593-1.351562-13.144531-4.203125-19.496093v-104.230469c0-21.605469-17.578125-39.183594-39.1875-39.183594h-111.40625c-6.4375-3.140625-13.546875-4.816406-20.871094-4.816406h-36.308593v-15.398438h4.449219c6.902343 0 12.519531-5.613281 12.519531-12.515624v-38.664063c0-6.898437-5.617188-12.515625-12.519531-12.515625h-109.195313c-6.902344 0-12.519531 5.617188-12.519531 12.519531v38.660157c0 6.902343 5.613281 12.519531 12.519531 12.519531h4.449219v15.394531zm285.027344 100.6875-53.945313-50.597656h53.945313zm30.273437-56.6875v85.082031l-15.273437-14.320312v-70.761719c0-4.914062-4-8.914062-8.914063-8.914062h-76.023437l-16.28125-15.269532h92.304687c13.335938 0 24.1875 10.847656 24.1875 24.183594zm-134.191406-20.214844c.019531.015625.035156.035156.054688.050782l23.328124 21.878906h-237.070312c1-17.105469 15.226562-30.714844 32.578125-30.714844h158.835937c8.429688 0 16.335938 3.246094 22.273438 8.785156zm-160.847656-87.878906h104.234375v33.695312c-11 0-93.636719 0-104.234375 0zm16.972656 48.695312h70.289062v15.398438h-70.289062zm0 0"/></svg>