<svg height="512pt" viewBox="-13 0 512 512" width="512pt" xmlns="http://www.w3.org/2000/svg"><path d="m45.234375 441.75c-13.921875 0-27.054687 5.46875-33.683594 14.625-2.425781 3.351562-3.820312 6.910156-4.007812 10.601562-1.054688 20.640626 34.992187 37.523438 79.605469 37.523438 42.4375 0 67.457031-14.539062 181.867187-14.539062 24.734375 0 78.941406 1.402343 120.984375 1.402343 40.148438 0 67.246094-14.378906 83.707031-27.652343 9.542969-7.699219 3.390625-21.960938-9.425781-21.960938zm0 0" fill="#b26220"/><path d="m386.375 44.648438h-56.402344v-30.640626c0-3.59375 2.914063-6.507812 6.507813-6.507812h43.382812c3.597657 0 6.511719 2.914062 6.511719 6.507812zm0 0" fill="#0d6e9a"/><path d="m119.539062 51.503906h294.863282v397.203125h-294.863282zm0 0" fill="#fccf3f"/><path d="m350.410156 51.503906h63.992188v397.203125h-63.992188zm0 0" fill="#f2bc25"/><g fill="#fd8f31"><path d="m419.675781 64.71875h-305.410156c-8.890625 0-16.097656-7.207031-16.097656-16.097656v-.214844c0-8.890625 7.207031-16.097656 16.097656-16.097656h305.410156c8.890625 0 16.097657 7.207031 16.097657 16.097656v.214844c0 8.890625-7.207032 16.097656-16.097657 16.097656zm0 0"/><path d="m419.675781 266.3125h-305.410156c-8.890625 0-16.097656-7.207031-16.097656-16.097656v-.214844c0-8.890625 7.207031-16.097656 16.097656-16.097656h305.410156c8.890625 0 16.097657 7.207031 16.097657 16.097656v.214844c0 8.890625-7.207032 16.097656-16.097657 16.097656zm0 0"/><path d="m419.675781 460.992188h-305.410156c-8.890625 0-16.097656-7.207032-16.097656-16.097657v-.214843c0-8.890626 7.207031-16.097657 16.097656-16.097657h305.410156c8.890625 0 16.097657 7.207031 16.097657 16.097657v.214843c0 8.890625-7.207032 16.097657-16.097657 16.097657zm0 0"/></g><path d="m369.128906 250.105469c0-57.167969-45.738281-103.515625-102.160156-103.515625-56.417969 0-102.15625 46.347656-102.15625 103.515625 0 57.171875 45.738281 103.515625 102.15625 103.515625 56.421875 0 102.160156-46.34375 102.160156-103.515625zm0 0" fill="#e7eced"/><path d="m266.96875 146.589844c-10.714844 0-21.042969 1.675781-30.746094 4.777344 41.394532 13.222656 71.410156 52.425781 71.410156 98.738281s-30.015624 85.515625-71.410156 98.742187c9.703125 3.097656 20.03125 4.773438 30.746094 4.773438 56.421875 0 102.160156-46.34375 102.160156-103.515625 0-57.167969-45.738281-103.515625-102.160156-103.515625zm0 0" fill="#d8d8d8"/><path d="m266.96875 309.425781c-21.335938 0-38.632812-17.296875-38.632812-38.636719 0-38.632812 38.632812-80 38.632812-80s38.636719 41.367188 38.636719 80c0 21.339844-17.296875 38.636719-38.636719 38.636719zm0 0" fill="#0d6e9a"/><path d="m291.242188 32.308594v86.402344c0 9.425781 7.640624 17.066406 17.066406 17.066406 9.425781 0 17.070312-7.640625 17.070312-17.066406v-30.132813c0-9.425781 7.640625-17.066406 17.066406-17.066406 9.425782 0 17.066407 7.640625 17.066407 17.066406v7.589844c-.011719 1.09375.152343 2.1875.554687 3.203125 3.050782 7.703125 12.109375 12.730468 20.953125 10.390625 7.550781-2 12.625-9.097657 12.625-16.910157v-60.542968zm0 0" fill="#b26220"/><path d="m261.488281 185.667969c-1.660156 1.777343-40.652343 44.003906-40.652343 85.121093 0 25.4375 20.695312 46.136719 46.132812 46.136719 25.441406 0 46.136719-20.695312 46.136719-46.136719 0-41.117187-38.992188-83.34375-40.652344-85.121093-2.964844-3.171875-8-3.175781-10.964844 0zm5.480469 116.257812c-17.167969 0-31.132812-13.96875-31.132812-31.136719 0-26.714843 20.917968-55.828124 31.132812-68.449218 10.21875 12.625 31.132812 41.734375 31.132812 68.449218 0 17.167969-13.964843 31.136719-31.132812 31.136719zm0 0"/><path d="m464.28125 434.25h-23.445312c-3.542969-7.164062-10.617188-12.277344-18.933594-13.0625v-147.484375c11.972656-1.128906 21.371094-11.230469 21.371094-23.488281v-.214844c0-12.261719-9.398438-22.363281-21.371094-23.492188v-154.398437c11.972656-1.125 21.371094-11.226563 21.371094-23.488281v-.214844c0-13.011719-10.585938-23.597656-23.601563-23.597656h-25.796875v-10.800782c0-7.722656-6.285156-14.007812-14.011719-14.007812h-43.382812c-7.726563 0-14.007813 6.285156-14.007813 14.007812v10.800782c-9.320312 0-197.050781 0-208.207031 0-13.011719 0-23.597656 10.585937-23.597656 23.597656v.214844c0 12.261718 9.398437 22.363281 21.367187 23.492187v154.394531c-11.96875 1.128907-21.367187 11.230469-21.367187 23.492188v.214844c0 12.257812 9.398437 22.363281 21.367187 23.488281v147.484375c-11.96875 1.128906-21.367187 11.230469-21.367187 23.492188v.210937c0 13.015625 10.585937 23.601563 23.597656 23.601563h305.40625c11.523437 0 21.140625-8.304688 23.191406-19.242188h21.417969c5.5 0 8.84375 5.292969 4.714844 8.621094-14.699219 11.859375-40.339844 25.992187-78.996094 25.992187-107.324219 0-159.554688-6.484375-257.496094 8.550781-16.683594 2.5625-29.863281 4.585938-45.355468 4.585938-40.984376 0-72.851563-15.226562-72.117188-29.640625.523438-10.230469 15.5625-18.109375 30.203125-18.109375h22.46875c4.140625 0 7.5-3.355469 7.5-7.5s-3.359375-7.5-7.5-7.5h-22.46875c-35.433594 0-58.777344 30.015625-36.515625 53.441406 14.246094 14.996094 44.300781 24.308594 78.429688 24.308594 16.636718 0 30.3125-2.101562 47.632812-4.761719 96.371094-14.792969 145.828125-8.375 255.21875-8.375 43.03125 0 71.832031-15.941406 88.414062-29.316406 15.070313-12.152344 5.765626-35.296875-14.132812-35.296875zm-337.242188-13.171875v-147.265625h32.796876c10.757812 49.863281 54.703124 87.308594 107.132812 87.308594s96.375-37.445313 107.132812-87.308594h32.800782v147.265625zm234.585938-170.972656c0 52.941406-42.460938 96.015625-94.65625 96.015625s-94.65625-43.070313-94.65625-96.015625c0-52.941407 42.460938-96.015625 94.65625-96.015625s94.65625 43.074218 94.65625 96.015625zm66.648438-.105469v.214844c0 4.738281-3.859376 8.597656-8.601563 8.597656h-43.382813c.433594-5.601562.464844-11.382812 0-17.410156h43.382813c4.742187-.003906 8.601563 3.855468 8.601563 8.597656zm0-201.59375v.214844c0 4.742187-3.859376 8.597656-8.601563 8.597656h-18.527344v-17.410156h18.527344c4.742187 0 8.601563 3.855468 8.601563 8.597656zm-85.40625 15.605469c-13.742188-.230469-24.992188 11.378906-24.992188 25.125v29.238281c0 5.089844-3.832031 9.542969-8.910156 9.882812-5.570313.371094-10.222656-4.054687-10.222656-9.546874v-78.902344h87.402343v53.191406c0 4.613281-3.152343 8.761719-7.675781 9.652344-8.710938 1.71875-11.601562-7.5625-11.125-6.9375-.554688-2.09375-.234375-2.566406-.332031-7.136719 0-13.40625-10.792969-24.339844-24.144531-24.566406zm-5.394532-49.011719h41.402344v9.808594h-41.402344zm-231.804687 33.621094v-.214844c0-4.742188 3.855469-8.597656 8.597656-8.597656h169.476563v78.902344c0 13.546874 11.023437 24.566406 24.566406 24.566406 13.546875 0 24.566406-11.019532 24.566406-24.566406v-30.132813c0-5.277344 4.292969-9.566406 9.566406-9.566406 5.277344 0 9.570313 4.289062 9.570313 9.566406.390625 7.195313.675781 10.671875 1.839843 13.984375 3.726563 9.132812 12.667969 15.273438 22.726563 15.273438 13.546875 0 24.566406-11.019532 24.566406-24.566407v-21.050781h5.757813v154.179688h-32.800782c-10.757812-49.859376-54.703124-87.308594-107.132812-87.308594s-96.375 37.449218-107.132812 87.308594h-32.796876v-154.179688h134.058594c4.140625 0 7.5-3.355469 7.5-7.5 0-4.140625-3.359375-7.5-7.5-7.5h-146.832031c-4.742187 0-8.597656-3.855469-8.597656-8.597656zm0 201.59375v-.214844c0-4.742188 3.855469-8.601562 8.597656-8.601562h43.382813c-.429688 5.605468-.464844 11.382812 0 17.414062h-43.382813c-4.742187 0-8.597656-3.859375-8.597656-8.597656zm322.605469 194.679687c0 4.742188-3.859376 8.597657-8.601563 8.597657h-305.40625c-4.742187 0-8.597656-3.855469-8.597656-8.597657v-.214843c0-4.742188 3.855469-8.601563 8.597656-8.601563h305.40625c4.742187 0 8.601563 3.859375 8.601563 8.601563zm0 0"/></svg>