<svg height="512" viewBox="0 0 512 512" width="512" xmlns="http://www.w3.org/2000/svg"><g id="FilledOutline"><path d="m248 376v.11a111.993 111.993 0 0 1 -223.98 1.01c-.02-.37-.02-.75-.02-1.12a112.023 112.023 0 0 1 88-109.41v-122.59h48v122.59a112.048 112.048 0 0 1 88 109.41z" fill="#ccdce5"/><path d="m248 376v.11a112.016 112.016 0 0 1 -125.87 111.03 72.508 72.508 0 0 1 -4.88-107.02l90.29-90.29a111.739 111.739 0 0 1 40.46 86.17z" fill="#abbac2"/><path d="m248 376.11a111.993 111.993 0 0 1 -223.98 1.01c17.74 3.63 21.66 14.88 45.98 14.88 26.46 0 28.77-13.33 51.02-15.65a64.931 64.931 0 0 1 6.97-.35c29 0 29 16 58 16s29-16 58-16c1.4 0 2.74.04 4.01.11z" fill="#ffc119"/><rect fill="#ccdce5" height="32" rx="16" width="80" x="96" y="128"/><path d="m112 160h48v16h-48z" fill="#abbac2"/><path d="m248 376.11a112.016 112.016 0 0 1 -125.87 111.03 72.508 72.508 0 0 1 -4.88-107.02l3.77-3.77a64.931 64.931 0 0 1 6.97-.35c29 0 29 16 58 16s29-16 58-16c1.4 0 2.74.04 4.01.11z" fill="#faac2b"/><path d="m464 431.43a56.574 56.574 0 0 1 -56.57 56.57h-238.86a56.571 56.571 0 0 1 -40-96.57l1.59-1.59 133.84-133.84v-168h48v168l135.43 135.43a56.572 56.572 0 0 1 16.57 40z" fill="#ccdce5"/><path d="m464 431.43a56.574 56.574 0 0 1 -56.57 56.57h-238.86a56.571 56.571 0 0 1 -40-96.57l1.59-1.59c14.39-4.37 19.53-13.84 41.84-13.84 29 0 29 16 58 16s28.99-16 57.99-16 29 16 58 16 29-16 58-16c22.31 0 27.45 9.47 41.85 13.84l1.59 1.59a56.572 56.572 0 0 1 16.57 40z" fill="#88bf40"/><rect fill="#ccdce5" height="32" rx="16" width="80" x="248" y="80"/><path d="m264 112h48v16h-48z" fill="#abbac2"/><path d="m459.884 329.14-35.884 21.53-35.884-21.53a8 8 0 0 0 -8.232 0l-35.884 21.53-35.884-21.53-8.232 13.72 36.116 21.67v30.94l-36.116 21.67a8 8 0 0 0 -3.884 6.86v40a8 8 0 0 0 3.884 6.86l40 24a8 8 0 0 0 8.232 0l35.884-21.53 35.884 21.53 8.232-13.72-36.116-21.67v-30.94l36.116-21.67a8 8 0 0 0 3.884-6.86v-35.47l36.116-21.67zm-115.884 149.53-32-19.2v-30.941l32-19.2 32 19.2v30.941zm72-83.2-32 19.2-32-19.2v-30.941l32-19.2 32 19.2z"/><path d="m440 480h16v16h-16z"/><path d="m472 480h16v16h-16z"/><path d="m480 328h16v16h-16z"/><path d="m272 328h16v16h-16z"/><path d="m134.468 396.846a77.645 77.645 0 0 0 12.4-5.842c6.809-3.758 12.69-7 25.128-7s18.323 3.246 25.135 7c7.643 4.217 16.3 9 32.865 9s25.214-4.779 32.855-9c6.812-3.758 12.695-7 25.135-7a47.448 47.448 0 0 1 13.713 1.78l4.594-15.326a63.075 63.075 0 0 0 -18.303-2.458c-16.562 0-25.223 4.78-32.865 9-6.811 3.757-12.692 7-25.125 7s-18.323-3.246-25.135-7c-7.643-4.217-16.3-9-32.865-9a72.729 72.729 0 0 0 -9.255.568l106.912-106.911a8 8 0 0 0 2.343-5.657v-136h32v136a8 8 0 0 0 2.343 5.657l64 64 11.314-11.314-61.657-61.657v-134.062a24 24 0 0 0 -8-46.624h-48a24 24 0 0 0 -8 46.624v134.062l-133.088 133.089a64.568 64.568 0 0 0 45.656 110.225h127.432v-16h-127.432a48.569 48.569 0 0 1 -34.343-82.912zm129.532-308.846h48a8 8 0 0 1 0 16h-48a8 8 0 0 1 0-16z"/><path d="m110.293 493.238 3.414-15.632a103.994 103.994 0 0 1 -80.914-88.919c1.436.727 2.858 1.5 4.341 2.321 7.644 4.215 16.307 8.992 32.866 8.992s25.223-4.781 32.864-9a56.789 56.789 0 0 1 11.433-5.228l-4.597-15.325a71.448 71.448 0 0 0 -14.571 6.547c-6.808 3.759-12.69 7.006-25.129 7.006s-18.325-3.245-25.14-7a76.313 76.313 0 0 0 -12.732-5.946 104.011 104.011 0 0 1 81.579-96.654 8 8 0 0 0 6.293-7.814v-98.586h32v98.586a8 8 0 0 0 6.293 7.816 103 103 0 0 1 37.13 16.243l9.154-13.123a118.886 118.886 0 0 0 -36.577-17.199v-93.7a24 24 0 0 0 -8-46.623h-48a24 24 0 0 0 -8 46.624v93.7a120.028 120.028 0 0 0 6.293 232.91zm1.707-357.238h48a8 8 0 0 1 0 16h-48a8 8 0 0 1 0-16z"/></g></svg>