<svg id="Capa_1" enable-background="new 0 0 512 512" height="512" viewBox="0 0 512 512" width="512" xmlns="http://www.w3.org/2000/svg"><g><g><g><path d="m290.853 78.892h-69.705l-8.817-61.131c-.781-5.413 3.417-10.261 8.887-10.261h69.565c5.469 0 9.668 4.848 8.887 10.261z" fill="#c39f8e"/></g></g><g><g><path d="m290.783 7.5h-30c5.469 0 9.668 4.848 8.887 10.261l-8.817 61.131h30l8.817-61.131c.781-5.413-3.418-10.261-8.887-10.261z" fill="#b78c7a"/></g></g><g><g><path d="m372.718 243.402c-14.711-17.948-40.985-53.86-50.023-66.284-2.238-3.076-4.151-6.369-5.701-9.842-12.406-27.795-18.787-57.916-18.739-88.384h-84.925c-.135 30.721-6.813 61.049-19.591 88.961-1.123 2.453-2.469 4.795-3.964 7.041-7.874 11.832-34.521 51.454-51.543 71.606-29.139 34.498-53.814 74.642-53.379 123.461.468 52.597 25.653 99.413 64.359 129.521 4.198 3.265 9.376 5.018 14.695 5.018h184.466c5.327 0 10.513-1.759 14.715-5.033 38.987-30.376 64.068-77.764 64.068-131.016-.002-48.729-24.841-88.938-54.438-125.049z" fill="#fff"/></g></g><g><g><path d="m372.718 243.402c-14.71-17.948-40.985-53.859-50.023-66.284-2.238-3.076-4.151-6.369-5.701-9.842-12.406-27.795-18.787-57.916-18.739-88.384h-30c-.048 30.468 6.333 60.588 18.739 88.384 1.551 3.474 3.464 6.767 5.701 9.842 9.038 12.424 35.313 48.336 50.023 66.284 29.597 36.11 54.436 76.32 54.436 125.048 0 53.253-25.081 100.641-64.068 131.017-4.202 3.274-9.388 5.033-14.715 5.033h30c5.327 0 10.513-1.759 14.715-5.033 38.987-30.376 64.068-77.764 64.068-131.017 0-48.728-24.839-88.938-54.436-125.048z" fill="#f0f0f0"/></g></g><g><g><path d="m356.129 222.198h-199.15c-6.616 9.078-13.195 17.728-18.748 24.303-29.139 34.497-53.814 74.642-53.379 123.46.468 52.597 25.653 99.413 64.359 129.521 4.198 3.265 9.376 5.018 14.695 5.018h184.466c5.327 0 10.513-1.759 14.715-5.033 38.987-30.376 64.068-77.764 64.068-131.017 0-48.728-24.839-88.938-54.436-125.048-4.672-5.699-10.51-13.21-16.59-21.204z" fill="#f7e07b"/></g></g><g><g><path d="m372.718 243.402c-4.671-5.699-10.508-13.21-16.589-21.204h-30c6.081 7.994 11.918 15.505 16.589 21.204 29.597 36.11 54.436 76.32 54.436 125.048 0 53.253-25.081 100.641-64.068 131.017-4.202 3.274-9.388 5.033-14.715 5.033h30c5.327 0 10.513-1.759 14.715-5.033 38.987-30.376 64.068-77.764 64.068-131.017 0-48.728-24.839-88.938-54.436-125.048z" fill="#f2d062"/></g></g><g><g><ellipse cx="221.226" cy="426.914" fill="#8face0" rx="34.94" ry="25.145" transform="matrix(.318 -.948 .948 .318 -253.88 500.884)"/></g></g><g><g><path d="m285.439 342.152s-105.376 30.842-134.884-28.724c51.216-42.375 134.884 28.724 134.884 28.724z" fill="#95c9a6"/></g></g><g><g><path d="m330.47 313.608s-82.928 7.153-88.303-46.65c47.472-25.883 88.303 46.65 88.303 46.65z" fill="#95c9a6"/></g></g><g><g><ellipse cx="299.243" cy="415.724" fill="#8face0" rx="34.94" ry="25.145" transform="matrix(.067 -.998 .998 .067 -135.588 686.454)"/></g></g><g><path d="m417.797 297.951c-8.98-18.721-21.462-37.565-39.278-59.303-14.772-18.022-41.821-55.028-49.76-65.941-1.939-2.665-3.594-5.521-4.918-8.487-12.048-26.994-18.134-55.698-18.087-85.315.003-1.991-.786-3.902-2.192-5.311-1.111-1.112-2.536-1.832-4.066-2.089l7.597-52.671c.684-4.735-.721-9.525-3.853-13.141-3.132-3.619-7.672-5.693-12.457-5.693h-69.564c-4.785 0-9.325 2.074-12.458 5.691-3.132 3.616-4.536 8.406-3.853 13.141l7.588 52.609c-3.737.414-6.649 3.571-6.667 7.418-.132 29.86-6.494 58.752-18.91 85.872-.904 1.975-2.013 3.94-3.39 6.009-7.729 11.616-34.252 51.06-51.027 70.921-23.914 28.312-55.648 72.421-55.15 128.367.474 53.154 24.987 102.496 67.254 135.374 5.47 4.255 12.324 6.598 19.3 6.598h184.466c6.984 0 13.848-2.35 19.324-6.617 30.278-23.59 52.148-56.946 61.583-93.923 1.023-4.013-1.399-8.097-5.413-9.121-4.016-1.022-8.098 1.399-9.122 5.413-8.616 33.771-28.599 64.242-56.267 85.799-2.855 2.225-6.444 3.45-10.105 3.45h-184.466c-3.656 0-7.239-1.221-10.09-3.438-38.629-30.047-61.031-75.122-61.464-123.668-.351-39.319 15.566-75.883 51.609-118.554 5.026-5.951 10.868-13.559 16.817-21.643h27.218c4.143 0 7.5-3.358 7.5-7.5s-3.357-7.5-7.5-7.5h-16.41c10.665-15.081 20.255-29.372 24.431-35.648 1.818-2.732 3.304-5.373 4.541-8.075 12.273-26.807 19.027-55.224 20.116-84.583h70.191c.91 29.09 7.384 57.291 19.278 83.941 1.75 3.92 3.933 7.688 6.484 11.197 5.295 7.279 14.639 20.057 24.448 33.167h-123.08c-4.143 0-7.5 3.358-7.5 7.5s3.357 7.5 7.5 7.5h134.417c5.31 6.942 10.345 13.384 14.504 18.458 46.742 57.03 52.736 94.244 52.736 120.294 0 3.677-.126 7.381-.376 11.01-.284 4.132 2.836 7.712 6.968 7.997 4.139.274 7.713-2.834 7.997-6.968.272-3.969.411-8.019.411-12.038.002-23.793-5.512-46.853-16.855-70.499zm-197.698-282.44c.202-.233.561-.511 1.119-.511h69.564c.559 0 .917.278 1.119.511.201.233.425.626.346 1.179l-7.89 54.702h-56.714l-7.89-54.702c-.079-.552.145-.946.346-1.179z"/><path d="m356.457 317.469c4.091-.653 6.877-4.497 6.225-8.588s-4.496-6.879-8.588-6.225c-6.501 1.038-12.793 2.496-18.877 4.282-3.711-5.985-12.972-19.84-26.011-31.874-23.705-21.88-48.13-26.959-70.629-14.692-2.648 1.443-4.173 4.331-3.873 7.331 2.547 25.5 20.509 42.813 51.943 50.063 5.473 1.263 10.879 2.105 15.942 2.664-6.491 3.485-12.613 7.266-18.353 11.197-8.324-6.33-24.47-17.667-43.918-26.55-38.541-17.603-71.234-16.714-94.546 2.572-2.681 2.219-3.484 5.99-1.939 9.108 13.257 26.762 42.167 40.877 83.664 40.877.541 0 1.085-.003 1.631-.007 9.035-.08 17.705-.802 25.482-1.788-13.902 13.357-22.901 25.101-26.164 29.589-6.883-.51-14.122 1.661-20.598 6.318-7.868 5.656-14.108 14.459-17.572 24.786-7.568 22.563.098 44.797 17.452 50.618 2.781.933 5.614 1.379 8.448 1.379 14.854 0 29.644-12.285 36-31.233 3.464-10.327 3.794-21.112.929-30.369-2.021-6.53-5.591-11.934-10.217-15.706 6.13-7.884 20.387-24.798 40.955-40.611 2.763 5.703 6.315 14.321 8.242 24.08-5.443 1.809-10.537 5.367-14.708 10.413-6.175 7.468-9.977 17.567-10.706 28.435-1.593 23.744 11.466 43.305 29.73 44.531.565.038 1.132.057 1.697.057 8.462 0 16.767-4.228 23.011-11.781 6.175-7.468 9.977-17.566 10.706-28.435 1.438-21.436-9.067-39.457-24.562-43.662-2.332-13.69-7.514-25.542-11.038-32.445 17.031-11.178 37.359-20.682 60.242-24.334zm-105.986-46.124c15.159-5.888 31.393-1.013 48.338 14.537 7.42 6.808 13.575 14.439 17.936 20.476-7.444-.201-17.219-.985-27.023-3.276-22.396-5.235-35.573-15.9-39.251-31.737zm-90.085 44.177c34.746-22.183 84.665 6.837 107.696 22.934-27.589 5.317-85.004 11.476-107.696-22.934zm77.57 117.004c-4.732 14.102-16.386 23.449-25.457 20.403-9.067-3.042-12.732-17.525-8.002-31.626 2.436-7.263 6.85-13.597 12.107-17.377 2.07-1.489 5.725-3.598 9.803-3.598 1.156 0 2.348.17 3.546.572 5.422 1.818 7.855 7.337 8.823 10.464 1.915 6.185 1.615 13.899-.82 21.162zm78.892-15.62c-.513 7.643-3.174 14.89-7.3 19.881-2.085 2.523-6.421 6.704-12.144 6.316-9.543-.64-16.764-13.719-15.768-28.56.513-7.643 3.174-14.89 7.3-19.881 1.996-2.414 6.064-6.34 11.41-6.34.241 0 .486.008.733.024 9.545.64 16.765 13.719 15.769 28.56z"/></g></g></svg>