<svg id="Layer_4" height="512" viewBox="0 0 64 64" width="512" xmlns="http://www.w3.org/2000/svg" data-name="Layer 4">
<path d="m52 56.81v-22.44c1.28-.57 2-1.21 2-1.87s-.72-.93-2-1.5v-25h-40v25c-1.28.57-2 .83-2 1.5s.72 1.3 2 1.87v22.44c-1.28.57-2 .83-2 1.5 0 2.49 9.85 4.5 22 4.5s22-2 22-4.5c0-.67-.72-.93-2-1.5z" fill="#ffde17"/>
<path d="m19 6h-7v25c-1.28.57-2 .83-2 1.5s.72 1.3 2 1.87v22.44c-1.28.57-2 .83-2 1.5 0 1.49 3.55 2.81 9 3.63z" fill="#d8b60f"/>
<path d="m52 7.37c1.28-.57 2-1.21 2-1.87 0-2.5-9.85-4.5-22-4.5s-22 2-22 4.5c0 .67.72 1.3 2 1.87 3.48 1.55 11.12 2.63 20 2.63s16.52-1.08 20-2.63z" fill="#8dc63f"/>
<path d="m39 1.23c-2.22-.15-4.56-.23-7-.23-12.15 0-22 2-22 4.5v.07a29.44 29.44 0 0 0 12.5 2.43c8.93 0 16.18-3 16.5-6.77z" fill="#b8e86b"/>
<path d="m32 37c-8.88 0-16.52-1.08-20-2.63v7.63a101 101 0 0 0 20 2 101 101 0 0 0 20-2v-7.63c-3.48 1.55-11.12 2.63-20 2.63z" fill="#d8b60f"/>
<path d="m32 10c-8.88 0-16.52-1.08-20-2.63v7.63a101 101 0 0 0 20 2 101 101 0 0 0 20-2v-7.63c-3.48 1.55-11.12 2.63-20 2.63z" fill="#d8b60f"/>
<path d="m37 27c0-2.76-5-11-5-11s-5 8.24-5 11a5 5 0 0 0 10 0z" fill="#8dc63f"/>
<path d="m29 31a5.21 5.21 0 0 0 .61.38c7.33-3.03 2.39-15.38 2.39-15.38s-5 8.24-5 11a5 5 0 0 0 2 4z" fill="#b8e86b"/>
<g opacity=".5">
<path d="m46 57a1 1 0 0 1 -1-1v-15a1 1 0 0 1 2 0v15a1 1 0 0 1 -1 1z" fill="#fff"/>
</g><g opacity=".5">
<path d="m46 30.5a1 1 0 0 1 -1-1v-15a1 1 0 0 1 2 0v15a1 1 0 0 1 -1 1z" fill="#fff"/></g>
<g fill="#000000">
<path d="m32 64c8.54 0 23-1.16 23-5.5 0 0 0-.05 0-.08s0-.07 0-.11a1.79 1.79 0 0 0 -.88-1.55 5.42 5.42 0 0 0 -1.12-.76v-5a1 1 0 0 0 -2 0v5a1 1 0 0 0 .06.31 1 1 0 0 0 0 .4 1 1 0 0 0 .58 1l.3.13c.35.16.76.34 1 .47l.07.08c-.67 1.25-8.06 3.4-21 3.4s-20.29-2.15-20.95-3.39l.08-.1c.23-.14.63-.31 1-.46l.3-.13a1 1 0 0 0 .57-1 1 1 0 0 0 0-.39 1 1 0 0 0 -.01-.32v-20.17c4.91 1.65 13.28 2.17 19 2.17 1.7 0 3.4 0 5-.12a1 1 0 0 0 -.09-2c-1.62.08-3.28.12-5 .12-9.94 0-16.61-1.28-19.45-2.44a1 1 0 0 0 -.34-.15 2.44 2.44 0 0 1 -1.12-.84 8.8 8.8 0 0 1 1.11-.57l.28-.12a.94.94 0 0 0 .11-.08 1 1 0 0 0 .2-.14 5.55 5.55 0 0 0 .21-.32 1 1 0 0 0 0-.24.94.94 0 0 0 .09-.1v-22.17c4.91 1.65 13.28 2.17 19 2.17s14.09-.52 19-2.17v22.17a.94.94 0 0 0 0 .13 1 1 0 0 0 0 .24 5.59 5.59 0 0 0 .21.32 1 1 0 0 0 .2.14.94.94 0 0 0 .11.08l.28.12a9.19 9.19 0 0 1 1.08.52 3.27 3.27 0 0 1 -1.34.88c-1.49.66-4.39 1.49-9.69 2a1 1 0 0 0 .1 2h.1a44.56 44.56 0 0 0 8.95-1.61v11.18a1 1 0 0 0 2 0v-12c1.23-.67 2-1.48 2-2.48 0-1.16-.9-1.66-2-2.15v-22.37c1.25-.68 2-1.5 2-2.49 0-4.35-14.46-5.51-23-5.51-2.42 0-4.8.08-7.07.23a1 1 0 0 0 .14 2c2.22-.15 4.56-.23 6.93-.23 13.27 0 20.73 2.28 21 3.49-.06.27-.49.59-1.24.93a1 1 0 0 0 -.32.14c-2.84 1.16-9.51 2.44-19.44 2.44s-16.56-1.27-19.42-2.42a1 1 0 0 0 -.38-.17c-.72-.33-1.14-.64-1.2-.91s1.85-1.82 9.13-2.79a1 1 0 1 0 -.26-2c-7.21.99-10.87 2.59-10.87 4.79 0 1 .75 1.8 2 2.49v22.36c-1.1.49-2 1-2 2.15 0 1 .75 1.8 2 2.49v21.01a5.41 5.41 0 0 0 -1.12.77 1.79 1.79 0 0 0 -.88 1.54s0 .07 0 .11 0 .05 0 .08c0 4.34 14.46 5.5 23 5.5z"/><path d="m31.15 15.48c-.53.87-5.15 8.52-5.15 11.52a6 6 0 0 0 12 0c0-3-4.62-10.65-5.15-11.52a1 1 0 0 0 -1.7 0zm4.85 11.52a4 4 0 0 1 -8 0c0-1.55 2.19-5.88 4-9 1.81 3.12 4 7.45 4 9z"/>
<path d="m30.33 27.28a1 1 0 0 0 .26 1.39 2.66 2.66 0 0 0 1.53.48 2.94 2.94 0 0 0 1.6-.48 1 1 0 0 0 .28-1.37 1 1 0 0 0 -1.4-.3.81.81 0 0 1 -.88 0 1 1 0 0 0 -1.39.28z"/></g></svg>