<?xml version="1.0" encoding="iso-8859-1"?>
<!-- Generator: Adobe Illustrator 19.0.0, SVG Export Plug-In . SVG Version: 6.00 Build 0)  -->
<svg version="1.1" id="Layer_1" xmlns="http://www.w3.org/2000/svg" xmlns:xlink="http://www.w3.org/1999/xlink" x="0px" y="0px"
	 viewBox="0 0 512 512" style="enable-background:new 0 0 512 512;" xml:space="preserve">
<path style="fill:#FFFFFF;" d="M196,60.384V227.75L52.756,439.632C34.807,466.181,53.828,502,85.875,502h340.25
	c32.047,0,51.068-35.819,33.119-62.368L316,227.75V60.384"/>
<path style="fill:#F49103;" d="M313.079,312.045c-49.512,0-60.692-23.918-107.407-23.918c-25.793,0-41.242,7.292-57.972,13.823
	l-1.449-0.614L52.756,439.632C34.807,466.181,53.828,502,85.875,502h340.25c32.047,0,51.068-35.819,33.119-62.368l-93.468-138.255
	l-2.941,0.221C349.622,307.034,335.743,312.045,313.079,312.045z"/>
<path style="fill:#EFEEEE;" d="M295.672,58.383h32.137c13.361,0,24.192-10.831,24.192-24.192l0,0C352,20.831,341.169,10,327.808,10
	H184.191C170.831,10,160,20.831,160,34.192l0,0c0,13.361,10.831,24.192,24.192,24.192h32.48L295.672,58.383z"/>
<path d="M254.927,68.383c-5.523,0-10.038-4.477-10.038-10s4.439-10,9.962-10h0.075c5.523,0,10,4.477,10,10
	S260.45,68.383,254.927,68.383z"/>
<g>
	<circle style="fill:#FAB617;" cx="302.89" cy="371.98" r="25.545"/>
	<circle style="fill:#FAB617;" cx="256.13" cy="226.05" r="29.965"/>
</g>
<path d="M286.143,399.664c-2.583,0-5.165-0.995-7.122-2.98l-0.101-0.103c-3.877-3.933-3.832-10.265,0.102-14.142
	c3.933-3.878,10.264-3.832,14.142,0.102l0.101,0.103c3.877,3.933,3.832,10.265-0.102,14.142
	C291.215,398.706,288.678,399.664,286.143,399.664z"/>
<path d="M306.785,405.967c-4.794,0-9.028-3.458-9.85-8.344c-0.916-5.446,2.758-10.604,8.204-11.52
	c6.824-1.147,11.776-7.016,11.777-13.954c0-7.802-6.349-14.15-14.152-14.15c-6.969,0-12.988,5.184-14.001,12.06
	c-0.805,5.464-5.889,9.238-11.35,8.436c-5.464-0.805-9.241-5.886-8.436-11.35C271.424,350.53,285.95,338,302.763,338
	c0.001,0,0,0,0.001,0c18.83,0,34.151,15.319,34.152,34.15c0,16.743-11.97,30.906-28.461,33.678
	C307.894,405.922,307.336,405.967,306.785,405.967z"/>
<path d="M235.208,258.129c-2.559,0-5.119-0.976-7.071-2.929l-0.207-0.21c-3.86-3.95-3.787-10.281,0.163-14.141
	c3.949-3.86,10.281-3.788,14.141,0.163l0.046,0.046c3.905,3.905,3.905,10.237,0,14.143
	C240.327,257.153,237.768,258.129,235.208,258.129z"/>
<path d="M260.99,266.001c-4.794,0-9.028-3.458-9.85-8.344c-0.916-5.446,2.757-10.604,8.204-11.52
	c9.725-1.635,16.783-9.996,16.783-19.88c0-11.116-9.044-20.16-20.161-20.159c-9.928,0-18.503,7.388-19.946,17.186
	c-0.804,5.464-5.894,9.243-11.35,8.436c-5.464-0.804-9.241-5.886-8.436-11.35c2.877-19.538,19.958-34.271,39.73-34.271
	c0.001,0,0,0,0.001,0c22.144,0,40.161,18.015,40.161,40.159c0,19.688-14.076,36.343-33.467,39.604
	C262.099,265.956,261.54,266.001,260.99,266.001z"/>
<path d="M197.913,377.061c-8.271,0-15-6.729-15-15s6.729-15,15-15s15,6.729,15,15S206.184,377.061,197.913,377.061z"/>
<path d="M240.927,156c-8.271,0-15-6.729-15-15s6.729-15,15-15s15,6.729,15,15S249.198,156,240.927,156z"/>
<circle style="fill:#FAB617;" cx="171.58" cy="436.42" r="21.333"/>
<path d="M171.579,467.755c-17.277,0-31.333-14.056-31.333-31.333s14.056-31.333,31.333-31.333s31.333,14.056,31.333,31.333
	S188.856,467.755,171.579,467.755z M171.579,425.088c-6.25,0-11.333,5.084-11.333,11.333s5.084,11.333,11.333,11.333
	s11.333-5.084,11.333-11.333S177.829,425.088,171.579,425.088z"/>
<path d="M467.529,434.032L326,224.687V68.383h1.808c18.854,0,34.192-15.338,34.192-34.191C362,15.338,346.662,0,327.808,0H184.192
	C165.338,0,150,15.338,150,34.192c0,18.853,15.338,34.191,34.192,34.191H186v156.304L44.472,434.032
	c-10.538,15.586-11.561,34.813-2.737,51.43S67.06,512,85.875,512h340.25c18.815,0,35.316-9.921,44.14-26.538
	S478.066,449.618,467.529,434.032z M204.284,233.351c1.118-1.654,1.716-3.604,1.716-5.601V68.383h10.671c5.523,0,10-4.477,10-10
	s-4.477-10-10-10h-32.479c-7.826,0-14.192-6.366-14.192-14.192C170,26.366,176.366,20,184.192,20h143.616
	C335.634,20,342,26.367,342,34.192s-6.366,14.191-14.192,14.191h-32.137c-5.523,0-10,4.477-10,10s4.477,10,10,10H306V227.75
	c0,1.996,0.598,3.947,1.716,5.601l42.263,62.515c-10.065,3.595-21.029,6.18-36.9,6.18c-23.174,0-37.009-5.583-51.657-11.493
	c-15.138-6.108-30.791-12.425-55.75-12.425c-13.942,0-25.079,1.968-34.886,4.772L204.284,233.351z M452.601,476.082
	c-5.293,9.967-15.19,15.918-26.476,15.918H85.875c-11.286,0-21.183-5.951-26.476-15.918s-4.679-21.5,1.641-30.849l90.669-134.115
	c1.57-0.615,3.132-1.235,4.691-1.855c14.389-5.727,27.98-11.136,49.273-11.136c21.076,0,34.283,5.33,48.266,10.972
	c15.773,6.365,32.083,12.946,59.141,12.946c21.442,0,35.552-4.117,48.422-9.135l89.458,132.323
	C457.28,454.583,457.894,466.115,452.601,476.082z"/>
<g>
</g>
<g>
</g>
<g>
</g>
<g>
</g>
<g>
</g>
<g>
</g>
<g>
</g>
<g>
</g>
<g>
</g>
<g>
</g>
<g>
</g>
<g>
</g>
<g>
</g>
<g>
</g>
<g>
</g>
</svg>
