<svg id="Capa_1" enable-background="new 0 0 512.001 512.001" height="512" viewBox="0 0 512.001 512.001" width="512" xmlns="http://www.w3.org/2000/svg"><path d="m404.809 124.277c-15.572 0-30.296 3.611-43.408 10.018-.942 2.759-1.457 5.668-1.457 8.632v.068c0 12.322 1.661 24.442 4.836 36.09 10.601-9.572 24.632-15.402 40.029-15.402 33.055 0 59.85 26.84 59.85 59.949 0 22.619-12.517 42.289-30.982 52.491 7.618 10.025 14.68 21.248 20.512 33.659 29.76-17.147 49.812-49.293 49.812-86.151 0-54.872-44.41-99.354-99.192-99.354z" fill="#c6c6c6"/><path d="m375.562 45.181h-119.059v-18.583c0-10.271 8.326-18.598 18.597-18.598h81.864c10.271 0 18.597 8.326 18.597 18.598v18.583z" fill="#cc624e"/><path d="m356.965 8.001h-23.914c10.271 0 18.597 8.326 18.597 18.598v18.582h23.914v-18.583c0-10.271-8.326-18.597-18.597-18.597z" fill="#bc574a"/><path d="m242.946 504.001c-11.161 0-21.799-4.805-29.136-13.23-26.892-30.877-48.617-68.925-48.617-111.265 0-61.723 33.92-106.282 64.072-133.697 29.004-26.372 45.83-63.578 45.83-102.815v-.068c0-6.501-2.367-12.778-6.657-17.656l-17.795-20.233c-8.507-9.672-13.2-22.12-13.2-35.01v-15.15c0-5.355 4.334-9.697 9.681-9.697h140.791c5.346 0 9.681 4.341 9.681 9.697v15.15c0 12.89-4.693 25.338-13.2 35.01l-17.796 20.233c-4.29 4.878-6.657 11.155-6.657 17.656v.068c0 39.237 16.826 76.442 45.83 102.815 30.151 27.415 64.072 71.974 64.072 133.697 0 42.34-21.725 80.388-48.617 111.265-7.337 8.425-17.975 13.23-29.136 13.23z" fill="#e0e0e0"/><path d="m453.445 258.539c-5.189 7.23-11.941 13.26-19.768 17.585 7.619 10.025 14.68 21.248 20.512 33.659 8.309-4.787 15.859-10.746 22.429-17.648-6.8-12.544-14.797-23.742-23.173-33.596z" fill="#bababa"/><path d="m386.944 134.395v-.068c0-2.983.521-5.912 1.475-8.687-9.534 1.594-18.608 4.545-27.018 8.654-.942 2.759-1.457 5.668-1.457 8.632v.068c0 12.322 1.661 24.442 4.836 36.09 7.207-6.507 16.001-11.279 25.73-13.671-2.34-10.079-3.566-20.474-3.566-31.018z" fill="#bababa"/><path d="m405.774 245.809c-29.004-26.372-45.83-63.577-45.83-102.814v-.068c0-6.501 2.367-12.778 6.657-17.656l17.795-20.233c8.507-9.672 13.2-22.12 13.2-35.01v-15.15c0-5.355-4.334-9.697-9.681-9.697h-27c5.346 0 9.681 4.341 9.681 9.697v15.15c0 12.89-4.693 25.338-13.2 35.01l-17.796 20.232c-4.29 4.878-6.657 11.155-6.657 17.656v.068c0 39.237 16.826 76.442 45.83 102.814 30.151 27.415 64.072 71.974 64.072 133.697 0 42.341-21.725 80.388-48.617 111.265-7.337 8.424-17.975 13.23-29.136 13.23h27c11.161 0 21.799-4.805 29.136-13.23 26.892-30.877 48.617-68.925 48.617-111.265 0-61.722-33.92-106.281-64.071-133.696z" fill="#ccc"/><path d="m405.774 245.809c-6.551-5.956-12.473-12.47-17.728-19.43h-141.054c-5.255 6.96-11.177 13.473-17.728 19.43-30.151 27.415-64.072 71.974-64.072 133.697 0 42.34 21.725 80.388 48.617 111.265 7.337 8.424 17.975 13.23 29.136 13.23h149.146c11.161 0 21.799-4.805 29.136-13.23 26.892-30.877 48.617-68.925 48.617-111.265.001-61.723-33.919-106.282-64.07-133.697z" fill="#ffaa5c"/><path d="m405.774 245.809c-6.551-5.956-12.473-12.47-17.728-19.43h-27c5.255 6.96 11.177 13.473 17.728 19.43 30.151 27.415 64.072 71.974 64.072 133.697 0 42.341-21.725 80.388-48.617 111.265-7.337 8.424-17.975 13.23-29.136 13.23h27c11.161 0 21.799-4.805 29.136-13.23 26.892-30.877 48.617-68.925 48.617-111.265-.001-61.723-33.921-106.282-64.072-133.697z" fill="#ff9838"/><ellipse cx="136.953" cy="441.395" fill="#348021" rx="46.253" ry="62.605"/><ellipse cx="59.045" cy="443.66" fill="#348021" rx="62.585" ry="46.268" transform="matrix(.447 -.895 .895 .447 -364.276 298.332)"/><path d="m87.087 387.709c-2.572-1.293-5.219-2.288-7.913-3.011 12 14.722 13.832 38.507-.004 66.113-15.94 31.804-40.241 43.877-61.465 38.176 3.579 4.392 8.053 7.986 13.298 10.624 22.83 11.48 51.415.676 69.379-35.165 17.963-35.841 9.535-65.257-13.295-76.737z" fill="#2e701b"/><path d="m136.953 378.79c-4.697 0-9.229.767-13.5 2.258 18.958 6.618 32.753 27.617 32.753 60.347 0 32.729-13.795 53.728-32.753 60.347 4.271 1.491 8.803 2.258 13.5 2.258 25.545 0 46.253-22.501 46.253-62.605s-20.708-62.605-46.253-62.605z" fill="#2e701b"/><path d="m54.814 342.328c-21.063-21.098-16.582-59.793-16.582-59.793s38.631-4.489 59.694 16.609 16.582 59.793 16.582 59.793-38.63 4.489-59.694-16.609z" fill="#98db7c"/><path d="m71.33 325.461c-12.087-12.107-15.757-30-16.694-43.059-9.524-.659-16.404.134-16.404.134s-4.481 38.695 16.582 59.793 59.695 16.609 59.695 16.609.808-7.037.112-16.734c-13.062-.903-31.109-4.541-43.291-16.743z" fill="#82d361"/><path d="m49.029 487.47c4.197 0 8.428-1.793 10.383-5.694 3.174-6.335-1.066-14.005-10.31-18.653-6.47-3.254-17.137-5.081-21.12 2.87-3.174 6.335 1.066 14.005 10.31 18.653 3.7 1.862 7.426 2.824 10.737 2.824z"/><path d="m136.72 463.122c-10.352 0-17.582 4.953-17.582 12.045 0 7.091 7.23 12.044 17.582 12.044s17.582-4.953 17.582-12.044c.001-7.092-7.229-12.045-17.582-12.045z"/><path d="m512.001 223.568c0-59.035-47.956-107.064-106.901-107.064-7.82 0-15.493.838-22.974 2.483l8.164-9.283c9.736-11.069 15.097-25.29 15.097-40.041v-15.18c0-9.501-7.722-17.231-17.213-17.231h-4.862v-11.103c0-14.419-11.73-26.149-26.149-26.149h-82.023c-14.419 0-26.149 11.73-26.149 26.149v11.104h-1.883c-9.492 0-17.214 7.73-17.214 17.231v15.18c0 14.75 5.361 28.97 15.097 40.041l17.83 20.272c3.094 3.519 4.798 8.038 4.798 12.796 0 4.151 3.364 7.48 7.515 7.48s7.515-3.398 7.515-7.549c0-8.345-3.033-16.39-8.542-22.654l-17.83-20.272c-7.321-8.326-11.353-19.021-11.353-30.116v-15.18c0-1.214.98-2.202 2.185-2.202h141.067c1.204 0 2.184.987 2.184 2.202v15.18c0 11.096-4.032 21.791-11.353 30.116l-17.83 20.272c-5.508 6.262-8.541 14.308-8.541 22.722 0 26.934 7.592 53.233 21.5 76.032h-112.95c8.169-13.37 14.183-27.985 17.751-43.452.932-4.044-1.59-8.078-5.634-9.012-4.044-.933-8.078 1.59-9.012 5.634-6.064 26.292-19.942 49.893-40.134 68.253-29.853 27.145-65.309 72.615-66.594 135.978-4.348-2.085-9.015-3.487-13.787-4.172-.349-11.734.951-38.578 17.49-61.456l3.244-4.197c2.51-3.247 1.949-7.909-1.26-10.47-3.209-2.56-7.878-2.072-10.487 1.099-1.253 1.521-2.44 3.059-3.568 4.611l-27.735 35.887c-1.534-13.81-6.11-31.156-18.521-43.589-23.406-23.444-64.267-18.996-65.997-18.796-3.464.403-6.196 3.136-6.597 6.6-.201 1.731-4.639 42.646 18.76 66.084 14.341 14.365 35.227 18.255 49.658 19.07l-10.445 13.515c-23.02-10.503-48.63-2.036-67.277 22.425-2.516 3.3-1.88 8.016 1.421 10.532 3.301 2.517 8.017 1.88 10.532-1.421 14.474-18.99 33.78-25.599 50.39-17.248 20.762 10.441 24.772 37.288 9.978 66.806-8.724 17.407-20.705 29.374-33.738 33.695-8.708 2.888-17.588 2.262-25.683-1.807-18.419-9.262-23.89-31.089-14.28-56.964 1.445-3.89-.537-8.215-4.427-9.66-3.89-1.446-8.216.536-9.661 4.428-12.312 33.145-3.828 62.829 21.616 75.623 11.572 5.82 24.879 6.721 37.164 2.646 11.213-3.718 21.377-11.155 30.064-21.832 9.691 15.475 24.827 24.386 42.305 24.386 15.217 0 28.953-6.806 38.676-19.163 5.256-6.68 9.186-14.783 11.735-24.002 6.081 9.171 13.075 18.312 20.929 27.331 8.765 10.064 21.472 15.835 34.86 15.835h149.437c13.389 0 26.096-5.771 34.861-15.835 24.341-27.951 40.089-56.492 46.802-84.831.957-4.038-1.541-8.087-5.58-9.044-4.039-.954-8.087 1.542-9.044 5.58-6.147 25.943-20.786 52.329-43.512 78.424-5.91 6.785-14.485 10.676-23.527 10.676h-149.438c-9.041 0-17.617-3.891-23.527-10.676-11.783-13.529-21.484-27.288-28.873-40.925.113-3.753.057-7.511-.188-11.259-1.141-17.483-6.246-32.386-14.937-43.432-.824-1.048-1.695-2.056-2.593-3.041-.181-2.667-.273-5.311-.273-7.891 0-59.725 33.573-102.79 61.738-128.399 5.98-5.437 11.446-11.3 16.399-17.513h133.97c4.944 6.224 10.409 12.089 16.374 17.513 28.165 25.61 61.739 68.674 61.739 128.399 0 4.151 3.364 7.515 7.515 7.515s7.515-3.364 7.515-7.515c0-25.063-5.365-47.373-13.684-66.927 29.709-19.74 47.905-53.337 47.905-89.252zm-247.981-197.419c0-6.131 4.988-11.119 11.119-11.119h82.023c6.131 0 11.119 4.988 11.119 11.119v11.104h-104.261zm-134.116 325.008c-1.189 8.54-1.329 15.886-1.18 21.038-8.813 1.464-16.949 5.329-23.8 11.283zm-70.165-13.968c-13.556-13.578-14.973-36.48-14.792-47.478 10.958-.206 33.747 1.199 47.353 14.827 13.556 13.579 14.973 36.48 14.792 47.478-10.95.214-33.745-1.198-47.353-14.827zm115.81 104.569c0 33.025-15.604 55.213-38.829 55.213-14.3 0-26.099-8.476-32.8-23.393.984-1.739 1.95-3.512 2.875-5.358 9.313-18.581 12.533-36.726 9.311-52.47-1.191-5.82-3.25-11.187-6.082-15.984 6.841-8.564 16.17-13.223 26.695-13.223 23.226.002 38.83 22.191 38.83 55.215zm235.574-201.529c-17.688-16.083-30.535-36.438-37.494-58.684 9.044-6.816 20.054-10.528 31.471-10.528 28.923 0 52.453 23.574 52.453 52.552 0 17.005-8.231 32.823-21.829 42.63-8.09-9.98-16.549-18.648-24.601-25.97zm46.435 58.853c-3.919-7.423-8.231-14.385-12.781-20.885 17.328-12.624 27.806-32.871 27.806-54.629 0-37.264-30.272-67.581-67.482-67.581-12.574 0-24.765 3.497-35.317 10.002-1.396-7.642-2.121-15.431-2.121-23.284 0-1.118.103-2.224.293-3.311 11.72-5.213 24.197-7.86 37.145-7.86 50.658 0 91.872 41.287 91.872 92.034-.001 30.152-14.926 58.399-39.415 75.514z"/></svg>