<svg id="Capa_1" enable-background="new 0 0 512.001 512.001" height="512" viewBox="0 0 512.001 512.001" width="512" xmlns="http://www.w3.org/2000/svg"><path d="m468.99 32.591c17.035-4.531 34.359 8.094 35.261 25.699 2.306 45.001-17.598 104.978-47.824 149.639l-96.146-112.169c27.778-25.453 76.801-54.681 108.709-63.169z" fill="#ffb9b4"/><path d="m386.272 126.082c28.068-25.036 75.562-53.146 106.754-61.443 3.838-1.021 7.668-1.061 11.344-.48.416 44.253-19.006 101.012-47.944 143.769z" fill="#ff9a9f"/><path d="m43.011 32.591c-17.035-4.531-34.359 8.094-35.26 25.699-2.306 45.001 17.598 104.978 47.824 149.639l96.145-112.169c-27.778-25.453-76.801-54.681-108.709-63.169z" fill="#ff9a9f"/><path d="m125.729 126.082c-28.068-25.036-75.562-53.145-106.754-61.443-3.838-1.021-7.668-1.061-11.344-.48-.416 44.253 19.006 101.012 47.944 143.769z" fill="#ff8086"/><circle cx="255.876" cy="264.013" fill="#ffb9b4" r="216.326"/><ellipse cx="255.876" cy="368.17" fill="#ff9a9f" rx="96.145" ry="72.109"/><path d="m275.191 461.024c-119.473 0-216.326-96.853-216.326-216.326 0-54.821 20.432-104.843 54.044-142.967-44.961 39.641-73.359 97.629-73.359 162.281 0 119.473 96.852 216.326 216.326 216.326 64.653 0 122.641-28.398 162.281-73.359-38.123 33.613-88.145 54.045-142.966 54.045z" fill="#ff9a9f"/><circle cx="223.828" cy="368.17" fill="#bd4150" r="16.024"/><circle cx="167.744" cy="239.977" fill="#4b3f4e" r="16.024"/><circle cx="287.925" cy="368.17" fill="#bd4150" r="16.024"/><circle cx="344.009" cy="239.977" fill="#4b3f4e" r="16.024"/><path d="m271.901 424.254c-53.099 0-96.145-32.284-96.145-72.109 0-12.64 4.363-24.507 11.98-34.836-17.303 13.039-28.005 31.011-28.005 50.86 0 39.824 43.045 72.109 96.145 72.109 36.246 0 67.781-15.057 84.164-37.273-17.411 13.122-41.507 21.249-68.139 21.249z" fill="#ff8086"/><path d="m331.021 322.683c-3.1 2.748-3.385 7.488-.637 10.587 9.249 10.433 14.138 22.501 14.138 34.9 0 35.625-39.766 64.608-88.645 64.608s-88.645-28.983-88.645-64.608 39.766-64.609 88.645-64.609c18.107 0 35.534 3.984 50.396 11.521 3.692 1.873 8.208.397 10.081-3.297 1.874-3.694.397-8.208-3.297-10.081-16.954-8.598-36.727-13.143-57.18-13.143-27.293 0-53.036 8.033-72.484 22.62-20.094 15.071-31.16 35.31-31.16 56.989s11.066 41.918 31.16 56.988c19.449 14.587 45.191 22.62 72.484 22.62s53.036-8.033 72.485-22.62c20.094-15.07 31.16-35.309 31.16-56.988 0-16.123-6.194-31.631-17.913-44.85-2.749-3.099-7.49-3.385-10.588-.637z"/><path d="m200.304 368.17c0 12.971 10.553 23.524 23.524 23.524s23.524-10.553 23.524-23.524-10.553-23.524-23.524-23.524-23.524 10.553-23.524 23.524zm32.048 0c0 4.7-3.824 8.524-8.524 8.524s-8.524-3.824-8.524-8.524 3.824-8.524 8.524-8.524 8.524 3.824 8.524 8.524z"/><path d="m191.268 239.977c0-12.971-10.553-23.524-23.524-23.524s-23.524 10.553-23.524 23.524 10.553 23.524 23.524 23.524 23.524-10.553 23.524-23.524zm-32.048 0c0-4.7 3.824-8.524 8.524-8.524s8.524 3.824 8.524 8.524-3.824 8.524-8.524 8.524-8.524-3.824-8.524-8.524z"/><path d="m287.925 344.646c-12.971 0-23.524 10.553-23.524 23.524s10.553 23.524 23.524 23.524 23.524-10.553 23.524-23.524-10.553-23.524-23.524-23.524zm0 32.048c-4.7 0-8.524-3.824-8.524-8.524s3.824-8.524 8.524-8.524 8.524 3.824 8.524 8.524-3.824 8.524-8.524 8.524z"/><path d="m344.009 216.453c-12.971 0-23.524 10.553-23.524 23.524s10.553 23.524 23.524 23.524 23.524-10.553 23.524-23.524-10.553-23.524-23.524-23.524zm0 32.048c-4.7 0-8.524-3.824-8.524-8.524s3.824-8.524 8.524-8.524 8.524 3.824 8.524 8.524-3.824 8.524-8.524 8.524z"/><path d="m511.741 57.906c-.546-10.661-5.888-20.439-14.654-26.828s-19.709-8.48-30.025-5.735c-32.259 8.581-63.602 25.821-90.946 49.936-35.611-22.667-77.287-35.091-120.24-35.091-43.24 0-84.604 12.186-120.184 34.92-27.299-24.026-58.57-41.204-90.753-49.764-10.316-2.745-21.259-.654-30.025 5.735-8.766 6.388-14.108 16.167-14.654 26.827-2.428 47.372 12.203 97.486 41.223 141.469-6.211 20.698-9.432 42.42-9.432 64.638 0 59.786 23.282 115.993 65.557 158.268s98.482 65.557 158.269 65.557 115.994-23.282 158.269-65.557 65.557-98.482 65.557-158.268c0-22.001-3.19-43.63-9.388-64.331 29.154-44.056 43.859-94.293 41.426-141.776zm-40.823-18.067c5.924-1.577 12.242-.35 17.334 3.361 4.427 3.226 7.346 7.909 8.241 13.098-2.226.152-4.444.508-6.643 1.093-28.631 7.616-56.858 22.225-81.968 42.364-6.058-5.6-12.396-10.844-18.988-15.711 24.916-21.284 53.113-36.514 82.024-44.205zm-447.169 3.361c5.092-3.712 11.41-4.938 17.334-3.361 28.842 7.672 56.974 22.85 81.846 44.055-6.562 4.865-12.883 10.125-18.953 15.744-25.074-20.08-53.25-34.646-81.825-42.247-2.199-.585-4.418-.941-6.644-1.093.896-5.189 3.815-9.872 8.242-13.098zm-8.722 28.103c1.095.104 2.185.296 3.268.584 26.058 6.931 51.823 20.153 74.929 38.373-19.77 20.885-35.065 44.937-45.421 70.986-20.763-34.84-32.159-73.052-32.776-109.943zm240.849 401.536c-115.146 0-208.825-93.679-208.825-208.825 0-115.147 93.679-208.826 208.825-208.826 59.319 0 116.048 25.367 155.642 69.597 2.762 3.085 7.504 3.348 10.59.585s3.348-7.504.585-10.59c-1.334-1.49-2.686-2.96-4.056-4.41 23.141-18.277 48.958-31.536 75.069-38.481 1.082-.288 2.173-.48 3.267-.584-.619 37-12.078 75.329-32.957 110.253-5.798-14.626-13.157-28.674-22.028-41.923-2.304-3.441-6.963-4.363-10.405-2.059-3.442 2.305-4.364 6.963-2.059 10.405 23.013 34.369 35.177 74.493 35.177 116.034.001 115.145-93.678 208.824-208.825 208.824z"/></svg>